<svg width="48" height="48" viewBox="0 0 48 48" fill="none" xmlns="http://www.w3.org/2000/svg">
<path d="M33.0525 17.895H27.4275V19.2525H33.0525V17.895Z" fill="#1D1D1B"/>
<path d="M21.8325 23.2875C22.4113 23.0612 22.9041 22.6582 23.2407 22.1358C23.5773 21.6134 23.7407 20.9981 23.7075 20.3775C23.7075 17.6325 21.6675 16.965 19.3125 16.965H12.81V30.75H19.5C22.0125 30.75 24.36 29.55 24.36 26.805C24.4243 26.0142 24.2054 25.2262 23.7425 24.5819C23.2795 23.9376 22.6025 23.4788 21.8325 23.2875ZM15.8325 19.32H18.675C19.7625 19.32 20.7525 19.62 20.7525 20.895C20.7525 22.17 20.0025 22.5375 18.9 22.5375H15.84L15.8325 19.32ZM19.08 28.41H15.84V24.615H19.14C20.49 24.615 21.33 25.2 21.33 26.5875C21.33 27.975 20.325 28.41 19.0875 28.41H19.08Z" fill="#1D1D1B"/>
<path d="M35.1825 25.89C35.1825 22.935 33.3525 20.475 30.33 20.475C27.3075 20.475 25.2375 22.7775 25.23 25.7775C25.23 28.9125 27.18 31.0275 30.33 31.0275C31.3828 31.1142 32.4322 30.8238 33.2908 30.2084C34.1494 29.5929 34.7614 28.6924 35.0175 27.6675H32.595C32.4055 28.0746 32.0986 28.4158 31.7136 28.647C31.3287 28.8782 30.8834 28.989 30.435 28.965C28.8225 28.965 27.9825 28.0275 27.9825 26.43H35.175C35.1894 26.2504 35.1919 26.07 35.1825 25.89ZM27.9825 24.6975V24.6075C28.0154 24.0424 28.2704 23.5132 28.6919 23.1352C29.1133 22.7573 29.6671 22.5613 30.2325 22.59C30.5187 22.5662 30.8067 22.6038 31.0773 22.7002C31.3478 22.7966 31.5946 22.9497 31.8012 23.1492C32.0079 23.3488 32.1695 23.5901 32.2753 23.8571C32.3812 24.1241 32.4288 24.4106 32.415 24.6975H27.9825Z" fill="#1D1D1B"/>
</svg>
