<svg width="48" height="48" viewBox="0 0 48 48" fill="none" xmlns="http://www.w3.org/2000/svg">
<path d="M33.885 16.9725C32.0789 15.5562 29.8775 14.736 27.585 14.625L27.2625 14.985C29.3143 15.5165 31.2276 16.4834 32.8725 17.82C30.78 16.6822 28.4885 15.9566 26.1225 15.6825C24.6111 15.5175 23.0854 15.5326 21.5775 15.7275L21.195 15.7725C19.4306 15.9837 17.7084 16.4616 16.0875 17.19C15.255 17.5575 14.76 17.82 14.76 17.82C14.76 17.82 16.605 16.05 20.655 14.895L20.43 14.625C18.1375 14.736 15.9361 15.5562 14.13 16.9725C12.0614 21.0083 10.9478 25.4655 10.875 30C10.875 30 12.75 33.2175 17.745 33.375C17.745 33.375 18.495 32.385 19.245 31.56C17.664 31.1631 16.2681 30.2334 15.2925 28.9275C15.2925 28.9275 15.525 29.085 15.93 29.31C15.93 29.31 15.975 29.355 16.02 29.355L16.2225 29.4675C16.7514 29.7564 17.3003 30.007 17.865 30.2175C18.9316 30.6519 20.0399 30.9761 21.1725 31.185C24.2322 31.7509 27.3904 31.4147 30.2625 30.2175C31.1765 29.8781 32.0474 29.4325 32.8575 28.89C31.8518 30.227 30.4073 31.167 28.7775 31.545L30.2775 33.345C35.25 33.195 37.125 30 37.125 30C37.05 25.4676 35.9419 21.012 33.885 16.9725ZM19.8 27.885C19.1833 27.8262 18.6107 27.5396 18.194 27.0813C17.7773 26.6229 17.5464 26.0257 17.5464 25.4062C17.5464 24.7868 17.7773 24.1896 18.194 23.7312C18.6107 23.2729 19.1833 22.9863 19.8 22.9275H19.8975C20.5171 22.9623 21.0975 23.2419 21.511 23.7046C21.9245 24.1673 22.1373 24.7754 22.1025 25.395C22.1229 26.0293 21.8927 26.6462 21.4619 27.1122C21.031 27.5781 20.434 27.8558 19.8 27.885ZM30.3 25.635C30.2617 26.1239 30.0794 26.5905 29.7762 26.9759C29.473 27.3613 29.0624 27.6483 28.5963 27.8006C28.1302 27.953 27.6294 27.9639 27.1571 27.8319C26.6848 27.6999 26.2621 27.4311 25.9425 27.0592C25.6228 26.6873 25.4205 26.2291 25.3609 25.7423C25.3014 25.2555 25.3874 24.762 25.608 24.3241C25.8287 23.8861 26.1741 23.5233 26.6006 23.2815C27.0272 23.0396 27.5159 22.9295 28.005 22.965H28.095C28.7152 22.9999 29.2963 23.2791 29.711 23.7416C30.1258 24.2041 30.3402 24.8122 30.3075 25.4325C30.3075 25.5 30.3 25.5 30.3 25.5975V25.635Z" fill="#1E1E1E"/>
</svg>
