<svg width="48" height="48" viewBox="0 0 48 48" fill="none" xmlns="http://www.w3.org/2000/svg">
<path d="M33.0101 15.6117C31.3529 14.8657 29.5759 14.3161 27.7179 14.0013C27.6841 13.9952 27.6503 14.0104 27.6328 14.0408C27.4043 14.4396 27.1511 14.9599 26.9738 15.3688C24.9754 15.0753 22.9873 15.0753 21.0298 15.3688C20.8525 14.9508 20.5902 14.4396 20.3606 14.0408C20.3432 14.0114 20.3094 13.9963 20.2756 14.0013C18.4186 14.3151 16.6415 14.8647 14.9833 15.6117C14.969 15.6178 14.9567 15.6279 14.9485 15.6411C11.5778 20.5816 10.6545 25.4006 11.1074 30.16C11.1095 30.1832 11.1228 30.2055 11.1413 30.2197C13.3651 31.822 15.5193 32.7947 17.6336 33.4394C17.6674 33.4496 17.7032 33.4374 17.7248 33.4101C18.2249 32.74 18.6707 32.0335 19.0529 31.2906C19.0755 31.2471 19.054 31.1954 19.0079 31.1782C18.3007 30.915 17.6274 30.5942 16.9797 30.2298C16.9285 30.2005 16.9244 30.1286 16.9715 30.0941C17.1078 29.9939 17.2441 29.8897 17.3743 29.7844C17.3978 29.7652 17.4306 29.7611 17.4583 29.7733C21.7134 31.6793 26.32 31.6793 30.5249 29.7733C30.5525 29.7601 30.5854 29.7642 30.6099 29.7834C30.7401 29.8887 30.8764 29.9939 31.0137 30.0941C31.0609 30.1286 31.0578 30.2005 31.0066 30.2298C30.3589 30.6013 29.6855 30.915 28.9774 31.1772C28.9313 31.1944 28.9108 31.2471 28.9333 31.2906C29.3238 32.0325 29.7696 32.739 30.2605 33.4091C30.281 33.4374 30.3179 33.4496 30.3517 33.4394C32.4761 32.7947 34.6303 31.822 36.8542 30.2197C36.8737 30.2055 36.886 30.1843 36.8881 30.161C37.4302 24.6587 35.98 19.8791 33.0439 15.6421C33.0367 15.6279 33.0245 15.6178 33.0101 15.6117ZM19.6884 27.262C18.4073 27.262 17.3517 26.1082 17.3517 24.6911C17.3517 23.274 18.3868 22.1201 19.6884 22.1201C21.0001 22.1201 22.0455 23.2841 22.025 24.6911C22.025 26.1082 20.9899 27.262 19.6884 27.262ZM28.3276 27.262C27.0466 27.262 25.991 26.1082 25.991 24.6911C25.991 23.274 27.0261 22.1201 28.3276 22.1201C29.6394 22.1201 30.6847 23.2841 30.6643 24.6911C30.6643 26.1082 29.6394 27.262 28.3276 27.262Z" fill="#1E1E1E"/>
</svg>
