<svg width="48" height="48" viewBox="0 0 48 48" fill="none" xmlns="http://www.w3.org/2000/svg">
<path d="M23.997 20.3316C21.9772 20.3316 20.3289 21.98 20.3289 23.9998C20.3289 26.0196 21.9772 27.668 23.997 27.668C26.0169 27.668 27.6652 26.0196 27.6652 23.9998C27.6652 21.98 26.0169 20.3316 23.997 20.3316ZM34.9988 23.9998C34.9988 22.4808 35.0125 20.9756 34.9272 19.4593C34.8419 17.6982 34.4402 16.1351 33.1523 14.8473C31.8617 13.5567 30.3014 13.1577 28.5403 13.0724C27.0213 12.9871 25.516 13.0008 23.9998 13.0008C22.4808 13.0008 20.9756 12.9871 19.4593 13.0724C17.6982 13.1577 16.1351 13.5594 14.8473 14.8473C13.5567 16.1379 13.1577 17.6982 13.0724 19.4593C12.9871 20.9783 13.0008 22.4835 13.0008 23.9998C13.0008 25.516 12.9871 27.024 13.0724 28.5403C13.1577 30.3014 13.5594 31.8645 14.8473 33.1523C16.1379 34.4429 17.6982 34.8419 19.4593 34.9272C20.9783 35.0125 22.4835 34.9988 23.9998 34.9988C25.5188 34.9988 27.024 35.0125 28.5403 34.9272C30.3014 34.8419 31.8645 34.4402 33.1523 33.1523C34.4429 31.8617 34.8419 30.3014 34.9272 28.5403C35.0153 27.024 34.9988 25.5188 34.9988 23.9998V23.9998ZM23.997 29.6438C20.8737 29.6438 18.3531 27.1231 18.3531 23.9998C18.3531 20.8765 20.8737 18.3558 23.997 18.3558C27.1203 18.3558 29.641 20.8765 29.641 23.9998C29.641 27.1231 27.1203 29.6438 23.997 29.6438ZM29.8722 19.4428C29.1429 19.4428 28.554 18.8539 28.554 18.1247C28.554 17.3955 29.1429 16.8066 29.8722 16.8066C30.6014 16.8066 31.1903 17.3955 31.1903 18.1247C31.1905 18.2978 31.1565 18.4693 31.0904 18.6294C31.0242 18.7894 30.9271 18.9348 30.8047 19.0572C30.6822 19.1797 30.5369 19.2767 30.3768 19.3429C30.2168 19.4091 30.0453 19.443 29.8722 19.4428V19.4428Z" fill="#1E1E1E"/>
</svg>
