<svg width="48" height="48" viewBox="0 0 48 48" fill="none" xmlns="http://www.w3.org/2000/svg">
<path d="M36 20.184V29.3438C36.0001 30.2777 35.6189 31.1762 34.9348 31.855C34.2507 32.5338 33.3154 32.9415 32.3208 32.9944L32.1 33H15.9C14.9038 33.0001 13.9454 32.6428 13.2213 32.0014C12.4972 31.36 12.0624 30.4832 12.006 29.5508L12 29.3438V20.184L23.5824 25.872C23.7113 25.9353 23.8545 25.9683 24 25.9683C24.1455 25.9683 24.2887 25.9353 24.4176 25.872L36 20.184ZM15.9 15H32.1C33.0667 14.9999 33.999 15.3364 34.716 15.9442C35.4331 16.552 35.8838 17.3878 35.9808 18.2895L24 24.1733L12.0192 18.2895C12.1122 17.4236 12.5317 16.6172 13.2021 16.0153C13.8725 15.4133 14.75 15.0553 15.6768 15.0056L15.9 15H32.1H15.9Z" fill="#0F141E"/>
</svg>
