<svg width="48" height="48" viewBox="0 0 48 48" fill="none" xmlns="http://www.w3.org/2000/svg">
<path d="M33.866 17.098C33.806 17.924 33.334 20.81 32.866 23.932L31.4 33.178C31.4 33.178 31.282 34.536 30.28 34.778C29.278 35.02 27.63 33.954 27.336 33.718C27.1 33.548 22.92 30.89 21.392 29.594C20.98 29.242 20.51 28.536 21.452 27.71C23.572 25.768 26.104 23.352 27.634 21.82C28.342 21.114 29.18 20.126 26.672 21.62L17.8 27.062C17.8 27.062 16.856 27.65 15.082 27.12C13.308 26.59 11.254 25.884 11.254 25.884C11.254 25.884 9.84001 25 12.254 24.058L25.972 18.4C27.33 17.814 31.914 15.928 31.914 15.928C31.914 15.928 34.042 15.102 33.866 17.098Z" fill="#1E1E1E"/>
</svg>
