<svg width="48" height="48" viewBox="0 0 48 48" fill="none" xmlns="http://www.w3.org/2000/svg">
<path fill-rule="evenodd" clip-rule="evenodd" d="M13.8196 18H10.9752C10.1625 18 10 18.3825 10 18.8042C10 19.5575 10.9643 23.2933 14.49 28.2342C16.8405 31.6084 20.1521 33.4375 23.1656 33.4375C24.9736 33.4375 25.1973 33.0312 25.1973 32.3315V29.7812C25.1973 28.9687 25.3686 28.8066 25.9411 28.8066C26.363 28.8066 27.0862 29.0175 28.7738 30.6444C30.7024 32.5725 31.0203 33.4375 32.1051 33.4375H34.9495C35.7622 33.4375 36.1686 33.0312 35.9342 32.2295C35.6777 31.4305 34.7569 30.2712 33.535 28.897C32.872 28.1137 31.8776 27.2701 31.5763 26.8483C31.1544 26.306 31.2749 26.065 31.5763 25.583C31.5763 25.583 35.0417 20.7023 35.4034 19.0454C35.5841 18.4427 35.4034 18 34.5432 18H31.6988C30.9756 18 30.6421 18.3825 30.4613 18.8042C30.4613 18.8042 29.0148 22.3292 26.9657 24.6189C26.3027 25.2816 26.0014 25.4925 25.6397 25.4925C25.4589 25.4925 25.1972 25.2816 25.1972 24.6792V19.0454C25.1972 18.3222 24.9874 18 24.3846 18H19.9148C19.4629 18 19.191 18.3356 19.191 18.6537C19.191 19.3391 20.2156 19.4972 20.3212 21.4253V25.6131C20.3212 26.5312 20.1553 26.6977 19.7937 26.6977C18.8294 26.6977 16.4838 23.157 15.0927 19.1056C14.8201 18.3181 14.5466 18 13.8196 18V18Z" fill="#1E1E1E"/>
</svg>
